# xmcd CD database file
#
# Track frame offsets:
#	150
#	11770
#	35930
#	61155
#	81932
#	105512
#	132117
#	154937
#	180632
#	197235
#
# Disc length: 3219 seconds
#
# Revision: 2
# Processed by: cddbd v1.5.1PL0 Copyright (c) Steve Scherf et al.
# Submitted via: CDex 1.51
#
DISCID=840c910a
DTITLE=Wibutee - Newborn Thing
DYEAR=1999
DGENRE=Jazz
TTITLE0=Fritzed
TTITLE1=Newborn Thing
TTITLE2=Foot Jive
TTITLE3=Colder Than Heaven
TTITLE4=Fin
TTITLE5=Once You Get There
TTITLE6=Lookout
TTITLE7=Attempt
TTITLE8=Jær
TTITLE9=K57 4.0
EXTD=YEAR: 1999
EXTT0=
EXTT1=
EXTT2=
EXTT3=
EXTT4=
EXTT5=
EXTT6=
EXTT7=
EXTT8=
EXTT9=
PLAYORDER=
